<?xml version="1.0" encoding="utf-8"?>
<!-- Generator: Adobe Illustrator 24.1.0, SVG Export Plug-In . SVG Version: 6.00 Build 0)  -->
<svg version="1.1" id="Capa_1" xmlns="http://www.w3.org/2000/svg" xmlns:xlink="http://www.w3.org/1999/xlink" x="0px" y="0px"
	 viewBox="0 0 564 566" style="enable-background:new 0 0 564 566;" xml:space="preserve">
<style type="text/css">
	.st0{fill:#E69413;}
</style>
<g>
	<g>
		<path class="st0" d="M282.47,419.99c-31.84,0.04-63.68,0.19-95.52,0.02c-5.85-0.03-11.89-0.68-17.51-2.24
			c-10.31-2.87-16.05-10.55-18.18-20.76c-0.92-4.41-1.18-9.05-1.05-13.56c0.24-8.04,5.72-13.13,13.8-13.18
			c34.07-0.21,68.14-0.36,102.2-0.52c6.54-0.03,13.08-0.13,19.62,0.05c1.87,0.05,3.92,0.62,5.55,1.55
			c5.8,3.33,11.5,6.85,17.15,10.44c1.83,1.16,3.19,1.23,5.1,0.01c5.92-3.81,11.96-7.42,18.03-10.98c1.19-0.69,2.74-1.08,4.12-1.09
			c19.53-0.1,39.07-0.13,58.6-0.11c2.74,0,5.55,0.04,8.21,0.6c7.59,1.6,10.56,4.58,11.44,12.45c1.07,9.56-0.55,18.72-6.66,26.52
			c-5.66,7.22-13.66,10.16-22.42,10.31c-23.66,0.4-47.32,0.36-70.98,0.46c-10.5,0.05-21,0.03-31.49,0.04
			C282.47,420,282.47,419.99,282.47,419.99z"/>
		<path class="st0" d="M376.88,303.15c-4.33,2.6-8.16,5.71-12.53,7.35c-7.94,2.97-13.01-0.84-13.52-9.33
			c-0.03-0.56-0.14-1.11-0.31-2.41c-2.91,4.87-6.44,8.13-10.76,10.55c-5.47,3.07-10.6,3.14-14.05-0.41
			c-1.83-1.89-2.94-4.48-4.29-6.63c-3.09,2.28-6.31,4.82-9.7,7.09c-1.38,0.93-3.09,1.52-4.73,1.87c-4.85,1.03-7.56-1.2-7.74-6.2
			c-0.07-1.95-0.02-3.9-0.02-6.06c-1.16,1.64-2.19,3.4-3.52,4.88c-1.88,2.09-3.77,4.29-6.04,5.88c-5.2,3.64-10.75,1.81-13.19-4.04
			c-2.39-5.72-1.95-11.53,0.19-17.1c3.3-8.58,8.54-15.86,16.08-21.28c1.92-1.38,4.13-2.56,6.39-3.21c4.69-1.34,9.78-1.14,12.38,6.6
			c0.82-2.19,1.4-3.95,2.16-5.62c0.29-0.63,1.01-1.47,1.56-1.49c3.6-0.14,7.21-0.08,11.26-0.08c-0.51,0.85-0.76,1.32-1.07,1.76
			c-5.43,7.55-10.24,15.42-12.98,24.39c-0.1,0.33-0.21,0.66-0.26,0.99c-0.47,3.26,0.48,5.56,2.5,6.07c2.64,0.67,6.59-1.56,7.36-4.23
			c2.99-10.32,8.46-19.01,17.36-25.13c2.71-1.87,6.17-2.94,9.44-3.64c3.73-0.8,7.15,0.42,9.57,4.28c1.9-4.33,3.64-8.32,5.38-12.31
			c3.49-8,6.38-16.33,12.04-23.2c2.88-3.5,6.2-6.15,11.17-5.71c4.55,0.4,7.79,3.51,8.24,8.05c0.44,4.41-0.58,8.58-2.3,12.53
			c-4.04,9.28-9.77,17.33-17.99,23.41c-1.5,1.11-3.14,2.25-4.89,2.75c-2.36,0.68-3.18,2.17-3.81,4.29
			c-1.42,4.81-2.51,9.63-1.98,14.7c0.34,3.2,1.76,4.43,4.91,4.18c4.67-0.38,6.97-2.38,8.48-6.76c3.6-10.49,9.72-19.04,19.6-24.54
			c2.86-1.59,6.03-2.46,9.19-1.73c2.44,0.56,4.65,2.07,7.23,3.29c1.93-4.46,3.97-9.62,6.36-14.62c2.91-6.1,5.8-12.25,9.33-17.99
			c1.71-2.77,4.51-5.43,7.45-6.77c7.24-3.3,13.79,1.77,13.31,9.79c-0.37,6.26-2.84,11.8-6,17.05c-4.3,7.13-9.22,14.09-16.85,17.65
			c-5,2.34-6.76,5.81-7.52,10.45c-0.51,3.12-0.79,6.32-0.69,9.47c0.13,4.08,2.27,5.56,6.2,4.49c4.76-1.29,8.64-4.04,10.93-8.42
			c4.06-7.74,7.81-15.65,11.73-23.46c0.26-0.53,0.87-1.23,1.34-1.25c3.65-0.11,7.31-0.07,11.4-0.07c-2.63,4.6-5.16,8.55-7.22,12.74
			c-2.6,5.28-4.94,10.7-7.12,16.18c-0.43,1.09-0.03,3.48,0.7,3.85c1.06,0.53,3.28,0.29,4.12-0.53c2.66-2.61,5.41-5.36,7.23-8.56
			c4.19-7.36,7.84-15.02,11.76-22.53c0.22-0.43,0.85-0.9,1.3-0.91c3.93-0.08,7.87-0.05,11.85-0.06
			c-7.34,14.77-14.6,29.39-21.86,44.01c0.18,0.25,0.36,0.51,0.54,0.76c1.64-0.81,3.46-1.4,4.9-2.48c5.21-3.92,8.16-9.64,11.55-14.99
			c1.62-2.56,1.85-2.64,4.95-0.57c-2,3.41-3.9,6.92-6.07,10.26c-3.41,5.27-6.94,10.51-12.34,14.01c-1.77,1.15-3.78,2.26-5.81,2.59
			c-2.22,0.35-3.2,1.43-4.14,3.23c-3.88,7.39-8.64,14.07-16.18,18.22c-6.94,3.82-13.56,2.05-16.59-4.39
			c-2.23-4.74,0.2-11.56,5.29-15.09c5.33-3.71,11.35-5.73,17.62-6.78c3.33-0.56,5.23-2.1,6.43-5.02c0.7-1.71,1.58-3.36,2.07-5.21
			c-1.71,1.93-3.31,3.97-5.15,5.77c-1.2,1.18-2.61,2.29-4.13,2.96c-5.12,2.22-9.74-0.26-10.93-5.72c-0.27-1.24-0.42-2.5-0.7-4.13
			c-1.39,1.32-2.57,2.49-3.8,3.61c-3.81,3.46-7.95,6.23-13.27,6.84c-4.27,0.49-7.63-1.34-9.03-5.48c-0.7-2.08-0.98-4.3-1.43-6.33
			c-2.01,2.14-3.87,4.91-6.43,6.67c-3.18,2.19-6.78,4.01-10.46,5.15c-3.75,1.16-8.18-1.62-10.16-5.46
			C377.63,304.84,377.16,303.75,376.88,303.15z M285.69,291.15c-0.18,4.89,1.99,6.77,5.36,5.27c2.82-1.25,5.5-3.16,7.72-5.31
			c4.29-4.16,7.4-9.19,8.97-15.03c0.59-2.18,0.34-4.27-1.58-5.84c-1.87-1.54-3.85-1.09-5.8-0.26c-0.93,0.4-1.81,0.98-2.59,1.62
			c-4.42,3.67-7.59,8.31-9.93,13.5C286.8,287.41,286.13,289.89,285.69,291.15z M349.32,281.46c0.96-2.53,2.1-4.52,2.43-6.64
			c0.56-3.55-1.6-5.15-4.8-3.58c-7.97,3.9-11.81,10.88-13.58,19.2c-0.43,2.01-0.39,4.18,1.59,5.61c2.12,1.53,4.26,0.86,6.32-0.16
			c4.8-2.39,7.99-6.4,10.63-10.9c0.78-1.33,1.39-2.75,2.2-4.38C352.15,280.95,350.77,281.2,349.32,281.46z M404.16,281.29
			c0.89-2.41,2.07-4.47,2.36-6.64c0.48-3.57-1.52-4.84-4.89-3.49c-6.55,2.62-13.82,13.77-13.57,20.82c0.13,3.75,2.66,5.85,6.19,4.53
			c7.41-2.75,11.35-8.84,14.63-15.94C406.98,280.86,405.56,281.08,404.16,281.29z M424.28,264.32c0.32,0.27,0.65,0.55,0.97,0.82
			c1.39-0.91,2.89-1.68,4.14-2.75c5.94-5.08,9.86-11.59,12.66-18.77c0.89-2.27,1.32-4.79,1.5-7.23c0.08-1.02-1.05-2.12-1.63-3.19
			c-0.85,0.49-1.82,0.86-2.51,1.52c-0.79,0.75-1.48,1.7-1.97,2.68C433.03,246.36,428.67,255.35,424.28,264.32z M369.9,264.69
			c0.18,0.18,0.36,0.35,0.54,0.53c1.5-0.99,3.14-1.83,4.48-3.01c5.98-5.28,9.92-11.97,12.61-19.37c0.8-2.2,1.03-4.66,1.17-7.02
			c0.05-0.8-0.82-1.97-1.59-2.39c-0.44-0.24-1.71,0.51-2.27,1.11c-1.04,1.12-2.03,2.36-2.69,3.73c-3.58,7.39-7.06,14.83-10.55,22.26
			C370.97,261.88,370.47,263.3,369.9,264.69z M445.68,319.2c-4.68,0.65-8.85,1.06-12.31,3.66c-1.02,0.76-1.99,2.09-2.2,3.3
			c-0.22,1.26,0.1,3.1,0.93,3.91c0.68,0.66,2.7,0.65,3.74,0.14C440.38,327.99,443.14,324.05,445.68,319.2z"/>
		<path class="st0" d="M282.14,203.83c43.54-0.05,87.08-0.11,130.62-0.16c4.21,0,6.06,1.23,5.96,3.96c-0.09,2.56-2,3.88-5.93,3.77
			c-4.94-0.14-9.06,1.49-12.4,5.15c-1.51,1.65-2.99,3.34-4.62,4.86c-6.56,6.12-14.82,5.89-21.06-0.53
			c-1.62-1.66-3.14-3.42-4.85-4.99c-6.67-6.1-14.65-5.9-21.05,0.47c-1.58,1.58-3.02,3.3-4.61,4.87c-6.41,6.3-14.99,6.19-21.27-0.26
			c-1.62-1.66-3.13-3.43-4.82-5.03c-6.46-6.13-15.11-5.86-21.26,0.61c-1.66,1.74-3.21,3.6-4.98,5.21
			c-6.42,5.84-14.53,5.55-20.7-0.64c-1.45-1.46-2.83-3-4.28-4.47c-6.76-6.84-15.56-6.72-22.19,0.28c-1.71,1.81-3.29,3.79-5.2,5.35
			c-6.67,5.46-14.5,4.86-20.48-1.4c-1.84-1.92-3.62-3.92-5.61-5.68c-5.37-4.76-13.19-4.75-18.52,0.04
			c-2.68,2.41-5.01,5.21-7.75,7.52c-5.44,4.6-12.75,4.45-18.11-0.24c-1.93-1.69-3.74-3.55-5.46-5.46c-3.17-3.52-7-5.44-11.79-5.32
			c-0.95,0.02-1.9,0.05-2.84-0.04c-2.23-0.21-3.71-1.76-3.74-3.85c-0.03-2.07,1.46-3.64,3.71-3.83c0.94-0.08,1.89-0.02,2.84-0.03
			C195.23,203.94,238.69,203.88,282.14,203.83z"/>
		<path class="st0" d="M65.14,250.78c-1.99,3.72-4.86,6.38-8.6,7.93c-3.43,1.42-6.81,0.87-9.68-1.54
			c-3.41-2.86-4.39-6.69-3.63-10.93c1.17-6.6,5.36-11.38,10.47-15.1c13.31-9.67,28.09-12.94,44.1-8.38
			c7.13,2.03,12.89,6.31,16.56,13.01c5.66,10.35,2.25,21.68-7.81,27.77c-2.9,1.76-6.07,3.07-9.18,4.62c0-0.01-0.06,0.25,0.01,0.29
			c6.86,4.39,7.56,11.13,6.54,18.21c-1.4,9.63-5.99,17.62-13.69,23.69c-8.5,6.69-19.87,5.03-25.1-3.59
			c-4.87-8.03-0.49-19.82,8.5-22.15c-0.65,1.78-1.37,3.38-1.83,5.05c-0.84,3.06,0.54,5.26,3.59,6.01
			c4.33,1.06,10.75-1.56,13.63-5.57c3.24-4.49,3.54-9.26,0.56-13.69c-3.07-4.57-7.91-5.79-13.02-6.08
			c-0.68-0.04-1.67,1.05-2.12,1.84c-4.79,8.42-9.37,16.96-14.27,25.32c-2.16,3.68-4.54,7.36-7.45,10.44
			c-6.95,7.35-18.43,4.74-21.93-4.76c-0.58-1.56-0.92-3.22-1.39-4.91c3-0.17,5.69-0.05,8.26-0.53c6.56-1.21,11.53-5.28,15.08-10.5
			c6.26-9.21,11.92-18.83,17.71-28.35c4.52-7.42,8.95-14.91,15.38-20.88c1.98-1.83,4.37-3.29,6.76-4.59
			c1.01-0.55,2.65-0.69,3.7-0.27c1.12,0.45,1.97,1.73,2.69,2.81c0.1,0.15-1.18,1.27-1.87,1.9c-1.89,1.73-3.97,3.29-5.69,5.18
			c-5.82,6.41-10.2,13.8-14.16,21.45c-0.38,0.73-0.48,1.6-0.79,2.68c4.34,1.02,8.38,0.3,12.13-1.31
			c10.61-4.58,16.71-12.86,18.42-24.2c1.08-7.17-1.18-12.03-6.71-14.35c-3.18-1.33-6.74-2.29-10.16-2.42
			c-9.39-0.35-18.06,2.02-25.15,8.63c-2.6,2.42-4.84,5.14-5.5,8.8c-0.72,4.02,0.47,6.13,4.25,7.68
			C64.21,250.19,64.62,250.49,65.14,250.78z"/>
		<path class="st0" d="M278.11,364.12c-1.58,0-3.15,0-4.73,0.01c-39.15,0.04-78.3,0.09-117.45,0.12c-6.69,0.01-10.71-3-12.28-9.08
			c-1.28-4.97,1.19-10.75,5.86-13.13c1.47-0.75,3.27-1.18,4.93-1.19c28.05-0.11,56.1-0.15,84.15-0.12c1.37,0,2.9,0.46,4.08,1.16
			c11.44,6.8,22.81,13.71,34.2,20.59c0.47,0.29,0.89,0.67,1.33,1.01C278.17,363.7,278.14,363.91,278.11,364.12z"/>
		<path class="st0" d="M181.17,263.71c-7.17,15.01-14.03,29.37-21.03,44.03c2.92,0.14,4.64-1.43,5.87-3.29
			c3.36-5.07,6.51-10.28,9.75-15.43c0.49-0.78,1.04-1.53,1.52-2.25c3.63,1.26,3.82,1.43,1.98,4.35
			c-4.17,6.59-8.33,13.19-12.85,19.53c-2.63,3.67-6.34,6.2-10.92,7.3c-0.9,0.22-1.8,1.25-2.32,2.13c-3.49,5.92-6.77,11.98-12,16.63
			c-2.99,2.66-6.57,3.76-10.46,3.48c-3.8-0.28-7.06-1.82-8.47-5.68c-1.57-4.3-0.8-8.35,2.2-11.8c4.17-4.8,9.88-6.96,15.77-8.71
			c1.64-0.49,3.35-0.69,4.99-1.19c0.78-0.24,1.72-0.67,2.11-1.31c1.3-2.15,2.39-4.44,3.25-6.84c-2.13,1.68-4.15,3.54-6.42,5
			c-6.45,4.14-11.52,1.75-12.76-5.86c-0.08-0.49-0.26-0.96-0.43-1.61c-2.82,2.32-5.29,4.87-8.23,6.62c-2.8,1.68-6,3.07-9.19,3.64
			c-5.83,1.03-10.09-2.55-9.83-8.53c0.2-4.45,1.13-9.06,2.74-13.21c2.76-7.1,6.33-13.88,9.49-20.83c0.8-1.76,1.33-3.64,2.12-5.83
			c3.5,0,7.49-0.01,12.01-0.01c-1.61,3.32-3.1,6.43-4.61,9.53c-2.32,4.79-4.69,9.56-6.94,14.38c-0.57,1.22-0.91,2.58-1.18,3.91
			c-0.91,4.37,1.98,7.2,6.24,5.92c4.3-1.3,7.72-3.35,9.11-8.35c2.57-9.21,7.87-16.71,16.02-21.97c3.61-2.33,7.53-3.7,11.88-3.6
			c2.7,0.06,4.28,1.32,5.02,3.94c1.67,5.9-2.69,12.13-8.1,11.54c-0.23-0.03-0.46-0.17-0.93-0.36c0.35-0.53,0.7-0.96,0.93-1.44
			c0.73-1.53,1.75-3.02,2.06-4.64c0.58-3.01-1.37-4.68-4.06-3.34c-2.31,1.15-4.56,2.8-6.26,4.73c-4.01,4.57-6.87,9.84-7.59,16.03
			c-0.27,2.28-0.15,4.58,1.94,6.07c2.21,1.57,4.78,1.39,6.8-0.02c2.49-1.73,4.98-3.75,6.73-6.18c5.43-7.56,9.6-15.83,12.67-24.64
			c0.25-0.72,1.07-1.71,1.68-1.74C174.43,263.62,177.43,263.71,181.17,263.71z M144.78,319.51c-4.86,0.92-9.07,1.61-12.38,4.59
			c-1.03,0.92-2,2.29-2.23,3.6c-0.22,1.23,0.19,3.07,1.04,3.83c0.71,0.63,2.73,0.56,3.71,0
			C139.49,328.94,142.08,324.64,144.78,319.51z"/>
		<path class="st0" d="M343.85,363.34c2.09-1.27,4.17-2.54,6.26-3.81c9.74-5.95,19.47-11.93,29.25-17.81
			c1.11-0.67,2.54-1.12,3.83-1.14c8.86-0.11,17.73-0.1,26.59-0.07c6.36,0.02,10.98,4.98,11.05,11.75
			c0.07,6.31-4.53,11.51-10.68,11.56c-19.19,0.16-38.38,0.15-57.57,0.2c-2.86,0.01-5.73,0.01-8.59,0.01
			C343.95,363.81,343.9,363.57,343.85,363.34z"/>
		<path class="st0" d="M239.45,457.78c-0.9,0.09-1.74,0.18-2.76,0.28c-3.66,11.61-7.35,23.28-11.02,34.95
			c-2.13,6.78-4.22,13.57-6.37,20.35c-1.96,6.18-7.88,9-14.75,7.06c-6.59-1.86-10.42-7.73-8.57-13.86
			c4.17-13.77,8.59-27.46,12.9-41.19c1.33-4.25,2.8-8.47,3.87-12.79c0.3-1.22-0.58-2.73-1-4.4c0.57,0.06,1.31,0.03,1.97,0.22
			c2.95,0.89,5.9,1.82,8.82,2.81c0.55,0.19,0.97,0.74,1.45,1.13c-0.51,0.28-1.08,0.49-1.52,0.87c-0.68,0.59-1.61,1.17-1.85,1.94
			c-3.34,10.36-6.58,20.75-9.83,31.13c-2.51,8.01-5.02,16.02-7.52,24.04c-0.31,0.98-0.67,1.96-0.85,2.96
			c-0.52,2.79,0.68,4.97,2.93,5.5c1.78,0.42,4.01-1.14,4.76-3.46c1.14-3.5,2.18-7.04,3.29-10.56c4.84-15.37,9.7-30.73,14.48-46.11
			c0.43-1.4,1.98-3.22-0.65-4.25c0.23-0.5,0.62-1.47,0.68-1.45c3.86,1.27,7.7,2.62,11.53,3.98
			C239.5,456.96,239.45,457.26,239.45,457.78z"/>
		<path class="st0" d="M298.67,481.26c-1.91,0-3.71-0.09-5.49,0.03c-1.63,0.11-2.34-0.37-2.36-2.11c-0.04-4.13-0.14-8.26-0.44-12.38
			c-0.1-1.36-0.52-3.13-1.46-3.89c-1-0.8-3.03-1.2-4.16-0.72c-1.09,0.47-2.25,2.29-2.25,3.51c0.01,7.31,0.3,14.62,0.57,21.92
			c0.45,11.69,0.96,23.38,1.45,35.06c0.05,1.29,0.02,2.59,0.25,3.85c0.37,2.03,1.67,3.14,3.77,3.17c2.22,0.03,3.55-1.13,4.02-3.24
			c0.17-0.74,0.12-1.54,0.1-2.31c-0.33-8.94-0.71-17.88-0.97-26.82c-0.06-1.96-0.42-3.16-2.73-2.83c-0.43,0.06-0.94-0.44-1.41-0.68
			c0.46-0.36,0.91-1.02,1.38-1.04c3.42-0.09,6.84-0.06,10.48-0.06c0.1,1.23,0.26,2.57,0.31,3.91c0.3,7.56,0.44,15.14,0.9,22.69
			c0.31,5.08-1.7,8.76-6.11,10.93c-4.73,2.33-9.5,2.07-13.92-1.03c-2.96-2.08-4.26-4.95-4.38-8.58
			c-0.57-16.24-1.22-32.48-1.92-48.72c-0.27-6.35,4.02-11.39,10.48-12.01c7.64-0.74,13.18,3.02,13.83,9.76
			C298.95,473.34,298.67,477.04,298.67,481.26z"/>
		<path class="st0" d="M317.83,489.26c3.51-0.6,6.41-1.09,9.3-1.58c0.11,0.28,0.22,0.56,0.33,0.84c-0.58,0.39-1.12,0.97-1.76,1.14
			c-1.82,0.48-3.68,0.91-5.54,1.13c-1.69,0.2-1.89,1.05-1.59,2.47c2.08,10.05,4.16,20.1,6.15,30.16c0.28,1.39,0.88,1.72,2.1,1.45
			c0.59-0.13,1.17-0.4,1.76-0.39c2.52,0.06,2.76-1.34,2.33-3.35c-1.02-4.76-1.98-9.54-2.95-14.32c-0.1-0.5-0.08-1.02-0.14-1.89
			c2.44-0.54,4.89-1.08,7.74-1.72c0.59,3.02,1.12,5.85,1.69,8.67c0.67,3.36,1.3,6.73,2.1,10.06c0.39,1.61,0.09,2.32-1.65,2.65
			c-7.06,1.34-14.1,2.83-21.16,4.2c-0.52,0.1-1.14-0.33-1.72-0.52c0.32-0.4,0.72-0.77,0.94-1.22c0.34-0.71,0.89-1.54,0.77-2.21
			c-1.45-7.57-3.02-15.11-4.55-22.66c-2.64-13.09-5.28-26.18-7.88-39.29c-0.22-1.13-0.27-2.07-1.84-1.7
			c-0.31,0.07-0.76-0.47-1.15-0.72c0.38-0.37,0.71-0.97,1.16-1.07c3.92-0.88,7.87-1.68,11.81-2.49c3.19-0.66,6.39-1.29,9.57-1.98
			c1.38-0.3,2.27-0.19,2.57,1.51c1.03,5.73,2.11,11.44,3.33,17.13c0.36,1.68-0.25,2.1-1.7,2.37c-6.23,1.19-6.17,1.21-7.23-5.07
			c-0.61-3.63-1.47-7.21-2.08-10.84c-0.25-1.47-0.9-1.92-2.26-1.61c-0.58,0.13-1.17,0.36-1.75,0.36c-2.48-0.01-2.7,1.26-2.24,3.35
			c1.4,6.44,2.66,12.9,3.97,19.36C316.79,484.04,317.3,486.62,317.83,489.26z"/>
		<path class="st0" d="M521.43,296.42c3.9-1.43,6.31-4.59,8.53-7.95c1.64-2.48,2.22-2.58,4.78-0.4
			c-6.16,10.68-13.44,20.14-26.34,23.1c-5.91,1.36-10.96-1.11-15.36-4.92c-0.46-0.4-0.74-1.72-0.44-2.15c2.52-3.64,5.2-7.18,8-10.97
			c0.54,0.87,0.76,1.7,1.26,1.92c1.4,0.63,2.96,1.49,4.37,1.35c1-0.1,2.42-1.55,2.65-2.61c0.41-1.84,0.42-3.96-0.1-5.75
			c-0.67-2.33-2.03-4.46-3.36-7.24c-1.31,2.13-2.32,3.76-3.33,5.39c-0.81,1.31-1.49,2.72-2.45,3.91c-0.44,0.55-1.66,1.14-2.06,0.91
			c-1.04-0.59-2.19-1.36-1.17-3.06c2.7-4.48,5.21-9.08,7.87-13.58c1.26-2.14,2.48-4.34,4.07-6.22c2.8-3.31,6.46-5.04,10.91-4.69
			c3.83,0.3,7.1,3.28,8.01,7.27c0.82,3.59-0.89,7.76-4.01,9.6c-0.7,0.41-1.53,0.58-2.4,0.9c-0.94-2.43-1.79-4.63-2.76-7.15
			c2.12,0.59,4.16,1.07,4.67-1.72c0.44-2.46-1.07-4.55-3.6-5.12c-1.99-0.45-4.05,0.95-4.58,3.49c-0.36,1.72-0.46,3.59-0.16,5.3
			c0.36,2.08,1.16,4.1,1.98,6.07c0.99,2.37,2.39,4.58,3.25,6.98C520.47,291.38,520.82,293.84,521.43,296.42z"/>
		<path class="st0" d="M390.57,480.82c2.55,4.34,4.99,8.55,7.51,12.72c0.61,1.01,1.35,2.42,2.28,2.65c1.22,0.3,3.1,0.03,3.91-0.78
			c0.75-0.76,1.05-2.85,0.53-3.83c-2.39-4.55-4.94-9.04-7.84-13.28c-1.25-1.83-3.29-3.3-5.27-4.39c-5.41-2.97-11.02-5.59-16.47-8.5
			c-1.72-0.92-3.63-2-4.68-3.53c-2.91-4.22-5.93-8.51-7.96-13.18c-2.69-6.19,3.28-14.15,10.39-14.73c5.05-0.42,8.85,1.25,11.23,5.95
			c1.43,2.82,3.21,5.47,5.07,8.6c-2.22,1.33-4.37,2.62-6.94,4.16c-1.84-3.04-3.64-6-5.43-8.98c-1.06-1.76-2-3.6-3.16-5.3
			c-1.18-1.72-2.79-2.18-4.7-1.04c-1.86,1.11-2.09,2.86-1.19,4.46c2.55,4.56,5.02,9.23,8.14,13.39c1.66,2.21,4.49,3.66,7,5.07
			c4.03,2.26,8.17,4.39,12.4,6.24c5.48,2.39,8.69,6.78,11.36,11.79c0.72,1.36,1.51,2.69,2.31,4.02c3.28,5.45,1.54,11.67-4.26,15.24
			c-5.8,3.57-12.23,2.37-15.54-2.97c-1.63-2.62-3.11-5.34-4.74-7.96c-0.81-1.3-0.66-2.18,0.72-2.91
			C386.98,482.85,388.67,481.87,390.57,480.82z"/>
		<path class="st0" d="M125.58,260.42c-2.6,0.01-4.01-1.23-4.06-3.56c-0.07-3.36,2.68-6.24,5.89-6.17c2.43,0.05,3.91,1.47,3.94,3.79
			C131.39,257.72,128.78,260.41,125.58,260.42z"/>
		<path class="st0" d="M343.34,26.02c-2.85,0-4.77-1.53-4.68-3.48c0.09-1.96,1.28-2.95,3.14-3.06c2.4-0.14,4.75,1.72,4.51,3.61
			C346.08,24.97,344.81,25.88,343.34,26.02z"/>
		<path class="st0" d="M63.9,434.83c-0.38,1.51-1.29,2.76-3.29,2.62c-1.69-0.12-3.83-2.71-3.65-4.45c0.19-1.87,1.32-3,3.22-3.01
			C61.98,429.98,64.07,432.66,63.9,434.83z"/>
		<path class="st0" d="M416.16,512.19c1.83,0.23,2.9,1.34,2.95,3.22c0.04,1.75-2.7,3.96-4.58,3.74c-1.93-0.23-2.86-1.55-2.9-3.36
			C411.58,514.15,414.23,512.13,416.16,512.19z"/>
		<path class="st0" d="M517.91,151.11c-0.15,1.91-1.25,3.03-3.07,3.25c-1.64,0.2-4.03-2.53-3.92-4.47c0.11-1.91,1.29-2.99,3.18-3.05
			C515.85,146.78,517.89,149.15,517.91,151.11z"/>
		<path class="st0" d="M136.07,60.74c-0.31,2.28-2.78,4.72-4.66,4.79c-1.5,0.05-3.24-1.62-3.25-3.12c0-1.79,2.47-4.27,4.4-3.9
			C133.82,58.75,134.9,59.96,136.07,60.74z"/>
		<path class="st0" d="M283.11,19.01c-2.38,0.05-3.81-0.81-3.99-3.02c-0.16-2.01,1.34-3.23,3.76-3.23c2.35,0,3.98,1.32,3.91,3.17
			C286.71,17.87,285.22,19.04,283.11,19.01z"/>
		<path class="st0" d="M182.94,529.22c2.44-0.01,4.5,1.6,4.5,3.59c0,2.02-1.37,2.88-3.08,3.07c-2.05,0.23-4.58-1.85-4.46-3.64
			C180,530.45,180.93,529.22,182.94,529.22z"/>
		<path class="st0" d="M24.06,342.77c-0.01,1.88-1.48,3.44-3.17,3.37c-1.86-0.08-3.43-2.14-3.34-4.53c0.07-1.91,1.19-3.01,3.07-3.16
			C22.5,338.29,24.07,340.33,24.06,342.77z"/>
		<path class="st0" d="M535.08,187.68c-0.07,1.65-1.21,2.7-3.03,2.9c-1.68,0.19-3.58-2.11-3.69-4.26c-0.09-1.73,1.49-3.43,3.15-3.4
			C533.22,182.94,535,185.17,535.08,187.68z"/>
		<path class="st0" d="M380.02,529.6c1.68,0.19,2.89,1.21,3.02,3.07c0.13,1.91-2.22,3.64-4.58,3.6c-2.04-0.04-2.94-1.25-3.01-3.12
			C375.38,531.37,377.66,529.59,380.02,529.6z"/>
		<path class="st0" d="M218.08,543.99c0.16-1.69,1.2-2.76,3.09-2.87c2.54-0.15,4.57,1.48,4.49,3.53c-0.07,2.03-1.38,2.85-3.2,2.93
			C220.04,547.7,218.11,546.16,218.08,543.99z"/>
		<path class="st0" d="M85.2,104.5c-1.52-0.06-2.38-1.33-2.44-3.15c-0.05-1.74,2.37-4.14,4.03-4.04c1.85,0.12,3.03,1.12,3.08,3.09
			C89.93,102.32,87.67,104.53,85.2,104.5z"/>
		<path class="st0" d="M20.63,242.1c0.05,2.81-1.36,4.68-3.36,4.61c-2.11-0.08-3-1.46-3.07-3.38c-0.09-2.43,1.25-4.1,3.21-4.15
			C19.58,239.13,20.38,240.49,20.63,242.1z"/>
		<path class="st0" d="M99.63,90.43c-1.56-0.23-2.63-1.27-2.65-3.19c-0.03-1.73,2.32-4.07,4.03-4c1.9,0.08,3.03,1.17,3.17,3.04
			C104.31,88.05,101.76,90.45,99.63,90.43z"/>
		<path class="st0" d="M95.93,478.25c0.15-1.54,1.28-2.52,3.18-2.53c1.75-0.01,4.14,2.36,4.04,4.04c-0.11,1.89-1.23,2.99-3.12,3.12
			C98.22,483,95.9,480.55,95.93,478.25z"/>
		<path class="st0" d="M207.95,26.96c-0.03,2.29-2.09,3.87-4.65,3.71c-1.79-0.11-2.88-1.15-2.99-2.93
			c-0.13-2.05,1.92-3.54,4.51-3.52C206.87,24.23,207.71,25.4,207.95,26.96z"/>
		<path class="st0" d="M37.78,167.85c-0.06-2.59,1.87-5.05,3.7-4.91c1.69,0.13,2.9,1.05,3.04,2.89c0.15,2.11-1.8,4.71-3.58,4.65
			C39.07,170.42,37.95,169.37,37.78,167.85z"/>
		<path class="st0" d="M361.68,536.31c1.29,0.09,2.25,1.29,2.35,3.13c0.1,1.77-2.26,3.55-4.43,3.49c-1.76-0.05-3.37-1.71-3.25-3.36
			C356.48,537.79,358.68,536.24,361.68,536.31z"/>
		<path class="st0" d="M482.46,102.67c-0.14,1.91-1.17,3.03-3.06,3.16c-1.79,0.12-4.13-2.4-4.06-4.29c0.07-1.85,1.23-2.82,2.92-3.02
			C480.04,98.3,482.46,100.81,482.46,102.67z"/>
		<path class="st0" d="M242.36,551.36c-3.01-0.07-4.79-1.51-4.61-3.53c0.17-1.92,1.41-2.91,3.25-2.97c2.56-0.08,4.42,1.41,4.32,3.4
			C245.22,550.34,243.91,551.24,242.36,551.36z"/>
		<path class="st0" d="M35.9,381.42c-0.2,1.57-1.13,2.77-3.02,2.9c-1.99,0.13-3.6-1.9-3.66-4.38c-0.04-1.99,1.07-3.03,2.89-3.21
			C33.89,376.55,35.8,378.92,35.9,381.42z"/>
		<path class="st0" d="M53.99,149.17c-0.02,1.31-2.02,3.56-3.81,3.52c-1.93-0.04-3.06-1.09-3.1-3.02c-0.04-2.06,2.19-4.54,3.94-4.38
			C52.92,145.46,53.92,146.6,53.99,149.17z"/>
		<path class="st0" d="M227.18,22.15c-0.01,1.99-1.82,3.5-4.28,3.55c-1.74,0.04-3.39-1.58-3.32-3.25c0.08-1.92,2.11-3.45,4.48-3.38
			C225.84,19.11,227.18,20.45,227.18,22.15z"/>
		<path class="st0" d="M490.32,454.55c-1.56-0.13-2.74-1.06-2.92-2.95c-0.17-1.89,2.02-4.24,3.91-4.32
			c1.99-0.09,3.02,1.08,3.23,2.86C494.75,451.9,492.32,454.47,490.32,454.55z"/>
		<path class="st0" d="M164.34,521.04c2.49-0.03,4.78,1.73,4.71,3.55c-0.06,1.81-0.86,3.13-2.95,3.17
			c-2.39,0.05-4.54-1.64-4.52-3.64C161.6,522.12,162.8,521.24,164.34,521.04z"/>
		<path class="st0" d="M18.31,262.7c-0.03,2.45-1.41,4.13-3.38,3.93c-2.23-0.22-2.96-1.7-2.88-3.77c0.08-2.29,1.39-3.89,3.22-3.87
			C16.97,259,18.33,260.65,18.31,262.7z"/>
		<path class="st0" d="M478.65,462.3c1.56,0.19,2.76,1.15,2.93,3.02c0.16,1.78-2.33,4.25-4.18,4.22c-1.83-0.03-2.83-1.12-3.01-2.87
			C474.2,464.75,476.43,462.37,478.65,462.3z"/>
		<path class="st0" d="M72.57,119.63c-1.64-0.14-2.77-1.11-2.84-3.05c-0.06-1.82,2.1-4.23,3.84-4.24c1.94-0.02,3.02,1.11,3.23,2.97
			C77.01,117.13,74.7,119.57,72.57,119.63z"/>
		<path class="st0" d="M468.36,88.83c-0.07,1.56-1.17,2.6-3.05,2.71c-1.73,0.11-4.18-2.19-4.17-3.93c0.01-1.88,1-3.1,2.94-3.26
			C465.93,84.2,468.32,86.54,468.36,88.83z"/>
		<path class="st0" d="M43.76,400.39c-0.08,1.24-1.23,2.27-3.07,2.35c-1.71,0.08-3.68-2.34-3.62-4.37c0.05-1.88,1.09-3.05,3.01-3.16
			C42.06,395.11,43.82,397.32,43.76,400.39z"/>
		<path class="st0" d="M246.74,18.09c-0.05,2.59-1.99,4.02-4.44,3.92c-1.83-0.08-3.27-1.61-3.18-3.36c0.1-1.87,1.91-3.21,4.33-3.05
			C245.34,15.73,246.75,16.52,246.74,18.09z"/>
		<path class="st0" d="M323.26,22.08c-2.7,0.04-4.37-1.22-4.25-3.31c0.13-2.12,1.5-2.94,3.46-2.94c2.45,0,4.26,1.34,4.14,3.24
			C326.49,21.06,325.37,22.18,323.26,22.08z"/>
		<path class="st0" d="M365.54,28.94c-0.01,1.17-1.09,2.18-2.98,2.31c-2.39,0.16-4.96-1.7-4.46-3.49c0.34-1.21,1.69-2.69,2.86-3
			C363.17,24.18,365.48,26.19,365.54,28.94z"/>
		<path class="st0" d="M186.02,30.63c1.66,0.23,2.87,1.15,2.87,3.11c0.01,1.89-2.02,3.43-4.38,3.49c-2.04,0.05-3.02-1.12-3.21-2.94
			C181.12,32.49,183.56,30.61,186.02,30.63z"/>
		<path class="st0" d="M148.06,54.76c-1.75-0.11-2.72-1.32-2.88-3.12c-0.15-1.67,2.24-3.67,4.28-3.71c1.97-0.04,3.06,1.04,3.25,2.92
			C152.88,52.59,150.39,54.7,148.06,54.76z"/>
		<path class="st0" d="M504.19,137.25c-1.74,0.04-3.7-2.12-3.81-4.16c-0.11-2.02,1.03-3.04,2.85-3.28c1.76-0.23,3.97,2.25,4,4.3
			C507.26,135.86,505.95,137.22,504.19,137.25z"/>
		<path class="st0" d="M24.42,222.29c0.05,2.72-1.43,4.75-3.29,4.86c-1.66,0.1-3.22-1.51-3.2-3.31c0.03-2.56,1.44-4.36,3.43-4.31
			C23.33,219.58,24.2,220.79,24.42,222.29z"/>
		<path class="st0" d="M146.62,511.69c2.62-0.03,4.82,1.84,4.7,3.78c-0.12,1.93-1.27,2.95-3.17,2.97c-2.06,0.03-4.15-1.89-4.19-3.74
			C143.93,512.68,145.04,511.76,146.62,511.69z"/>
		<path class="st0" d="M552.12,303.65c-0.02,2.52-1.31,4.18-3.21,4.16c-1.91-0.02-3.08-1.42-3.06-3.66c0.02-2.56,1.28-4.11,3.3-4.06
			C550.84,300.14,552.14,301.69,552.12,303.65z"/>
		<path class="st0" d="M14.15,322.1c-0.17-1.97,0.97-3.07,3-3.15c1.97-0.08,3.33,1.88,3.25,4.44c-0.06,1.92-1,3.07-2.98,3.15
			C15.26,326.64,14.12,325.12,14.15,322.1z"/>
		<path class="st0" d="M539.86,344.14c0.03-2.82,1.35-4.5,3.41-4.34c2.12,0.16,2.92,1.52,2.86,3.5c-0.07,2.38-1.56,4.34-3.32,4.12
			C540.92,347.19,539.64,346.17,539.86,344.14z"/>
		<path class="st0" d="M534.37,380.8c0.06,2.54-1.51,4.65-3.36,4.68c-1.94,0.04-3.07-1.08-3.28-2.89c-0.26-2.18,1.69-4.56,3.59-4.54
			C533.26,378.08,534.26,379.15,534.37,380.8z"/>
		<path class="st0" d="M46.33,415.9c0.16-1.64,1.14-2.79,3.06-2.9c1.66-0.1,3.96,2.27,3.88,4.13c-0.07,1.77-0.91,3.16-2.91,3.33
			C48.56,420.61,46.37,418.21,46.33,415.9z"/>
		<path class="st0" d="M206.31,538.98c-0.05,2.45-1.4,3.29-3.14,3.5c-2.13,0.25-4.3-1.56-4.38-3.44c-0.08-1.97,1.1-3.11,3.2-3.09
			C204.48,535.97,206.29,537.41,206.31,538.98z"/>
		<path class="st0" d="M514.22,414.13c1.72,0.03,2.68,1.15,2.78,3.05c0.11,2.1-1.7,4.26-3.56,4.34c-2.01,0.08-3.03-1.13-3.3-2.9
			C509.85,416.75,512.14,414.21,514.22,414.13z"/>
		<path class="st0" d="M71.62,446.24c2.14,0.01,4.32,2.35,4.19,4.32c-0.12,1.93-1.2,2.96-3.15,2.94c-1.76-0.01-3.89-2.3-3.82-4.16
			C68.91,447.44,69.9,446.34,71.62,446.24z"/>
		<path class="st0" d="M302.7,13.58c2.5-0.01,4.05,1.3,3.94,3.38c-0.12,2.16-1.57,2.89-3.47,2.96c-2.31,0.09-4.11-1.38-4.17-3.29
			C298.94,14.86,300.49,13.59,302.7,13.58z"/>
		<path class="st0" d="M134.25,505.39c-0.1,1.43-1.27,2.33-3.15,2.34c-1.94,0.01-4.14-2.07-4.1-3.86c0.04-1.94,1.1-3,3.05-3.01
			C132.22,500.83,134.28,502.81,134.25,505.39z"/>
		<path class="st0" d="M402.69,43.64c-0.12,1.44-1.21,2.49-3.1,2.52c-2.21,0.03-4.37-2.01-4.25-3.92c0.12-1.83,1.18-2.78,2.99-2.81
			C400.69,39.38,402.75,41.17,402.69,43.64z"/>
		<path class="st0" d="M29.22,362.56c-0.19,1.48-1.06,2.68-3.05,2.73c-2.09,0.05-3.7-1.95-3.53-4.5c0.13-1.9,1.23-3.02,3.15-3.04
			C27.65,357.73,29.27,359.92,29.22,362.56z"/>
		<path class="st0" d="M548.87,260.72c2.27,0.07,3.46,1.67,3.35,4.17c-0.1,2.09-1.5,3.52-3.35,3.4c-1.93-0.12-2.99-1.74-2.9-4.35
			C546.03,261.89,547.03,260.8,548.87,260.72z"/>
		<path class="st0" d="M380.51,37.95c-1.69-0.03-3.66-1.61-3.61-3.55c0.05-1.95,1.15-3.02,3.07-3.08c2.29-0.08,4.72,1.9,4.47,3.69
			C384.19,36.79,383.24,38.04,380.51,37.95z"/>
		<path class="st0" d="M64.72,131.05c0.04,2.45-2.04,4.92-3.85,4.76c-1.87-0.16-2.95-1.29-2.99-3.21c-0.04-1.88,2.02-4.28,3.78-4.24
			C63.53,128.4,64.63,129.46,64.72,131.05z"/>
		<path class="st0" d="M541.44,206.18c0.11,2.09-0.94,3.29-2.96,3.44c-1.91,0.14-3.31-1.85-3.4-4.39c-0.08-2.02,0.91-3.09,2.81-3.26
			C539.87,201.8,541.38,203.66,541.44,206.18z"/>
		<path class="st0" d="M23.15,204.97c-0.07-2.8,1.63-5.05,3.56-4.88c1.87,0.17,2.9,1.26,2.88,3.25c-0.02,2.43-1.5,4.48-3.38,4.39
			C24.32,207.64,23.29,206.52,23.15,204.97z"/>
		<path class="st0" d="M549.78,323.56c-0.01,2.49-1.27,4.26-3.18,4.17c-2.01-0.09-3.06-1.3-3.09-3.34
			c-0.05-2.51,1.33-4.26,3.37-4.26C548.67,320.13,549.79,321.45,549.78,323.56z"/>
		<path class="st0" d="M116.72,70.25c1.65,0.19,2.67,1.27,2.66,3.2c-0.01,1.72-2.42,4.03-4.17,3.9c-1.84-0.13-3.05-1.19-3.16-3.1
			C111.96,72.47,114.52,70.22,116.72,70.25z"/>
		<path class="st0" d="M401.28,524.29c-0.02,2.31-2.32,4.35-4.44,4.14c-1.85-0.18-2.95-1.29-2.91-3.25
			c0.04-1.83,2.17-3.62,4.34-3.56C400.21,521.67,401.2,522.79,401.28,524.29z"/>
		<path class="st0" d="M543.77,243.55c0.06-1.36,0.91-2.7,3-2.83c1.86-0.11,3.24,1.68,3.33,4.11c0.08,2.05-0.93,3.3-2.9,3.57
			C545.27,248.67,543.84,246.79,543.77,243.55z"/>
		<path class="st0" d="M492.81,121.02c-2.26,0.07-4.38-2.12-4.34-4.2c0.04-1.95,1.16-2.99,3.05-3.08c1.73-0.08,3.82,2.21,3.86,4.13
			C495.41,119.82,494.43,120.89,492.81,121.02z"/>
		<path class="st0" d="M415.36,48.78c2.67-0.09,4.95,1.76,5,3.69c0.06,2.02-1.09,2.98-2.98,3.06c-2.09,0.1-4.28-1.72-4.34-3.55
			C412.98,50.07,413.92,48.95,415.36,48.78z"/>
		<path class="st0" d="M118.21,493.3c-0.18,1.48-1.25,2.48-3.16,2.48c-1.9,0-4.12-2.09-4.1-3.88c0.03-1.94,1.13-3,3.03-3.08
			C115.95,488.73,118.22,490.98,118.21,493.3z"/>
		<path class="st0" d="M321.15,551.37c-1.99,0.08-3.33-0.75-3.53-2.82c-0.18-1.98,1.7-3.42,4.22-3.45c2.11-0.03,3.18,1.14,3.39,3.06
			C325.45,550.06,323.72,551.33,321.15,551.37z"/>
		<path class="st0" d="M261.61,553.46c-2.51-0.02-3.9-1.1-3.94-3.05c-0.04-1.97,1.27-3.14,3.53-3.16c2.42-0.02,4.24,1.39,4.17,3.24
			C265.3,552.34,263.86,553.48,261.61,553.46z"/>
		<path class="st0" d="M449.64,489.64c1.35-0.03,2.36,1.08,2.56,2.93c0.19,1.76-2.24,4.02-4.25,4.02c-2.01,0-2.92-1.15-2.94-3.07
			C444.99,491.62,447.01,489.68,449.64,489.64z"/>
		<path class="st0" d="M434.72,66.38c-2.41,0.06-4.69-1.93-4.66-3.82c0.03-1.95,1.07-2.98,3.01-3.02c2-0.04,4.22,1.85,4.25,3.67
			C437.35,65.13,436.32,66.19,434.72,66.38z"/>
		<path class="st0" d="M540.24,224.4c-0.2-1.89,0.9-2.91,2.77-3.07c2.03-0.17,3.49,1.63,3.5,4.15c0,1.99-0.89,3.27-3,3.34
			C541.43,228.88,540.23,227.27,540.24,224.4z"/>
		<path class="st0" d="M449.19,71.41c1.99,0.02,4.24,2.22,4.15,4.11c-0.09,1.87-1.29,2.74-2.98,2.88c-1.95,0.16-4.22-2.06-4.23-3.98
			C446.12,72.59,447.33,71.39,449.19,71.41z"/>
		<path class="st0" d="M522.55,403.9c-1.58-0.12-2.73-1-2.77-3.02c-0.04-2.35,1.8-4.93,3.59-4.46c1.2,0.32,2.61,1.67,3,2.86
			C526.96,401.16,524.63,403.82,522.55,403.9z"/>
		<path class="st0" d="M14.31,299.16c2.62-0.07,3.78,1.24,3.87,3.68c0.08,2.29-1.26,4.1-3.08,3.93c-2.29-0.22-3.1-1.7-3.1-3.91
			C12.01,300.79,12.55,299.33,14.31,299.16z"/>
		<path class="st0" d="M17.39,282.91c-0.06,2.5-1.22,3.87-3.18,3.78c-1.85-0.09-3.12-1.76-2.97-4.05c0.13-1.95,0.78-3.57,3.12-3.61
			C16.36,279,17.46,280.45,17.39,282.91z"/>
		<path class="st0" d="M339.88,547.88c-1.62-0.15-2.77-1.08-2.67-3.25c0.1-1.97,1.68-3.21,4.17-3.17c2.04,0.03,3.25,1.07,3.31,3.11
			C344.75,546.5,342.76,547.92,339.88,547.88z"/>
		<path class="st0" d="M499.49,436.44c-0.11-2.95,1.89-5.27,3.8-5.27c1.82,0,2.91,0.94,3.13,2.71c0.25,1.98-2.16,4.92-3.96,4.52
			C501.22,438.13,500.18,436.92,499.49,436.44z"/>
		<path class="st0" d="M167.75,38.64c1.51,0.09,2.58,1.08,2.62,3.03c0.05,1.8-2.41,3.92-4.44,3.72c-1.67-0.17-2.86-0.99-2.86-2.94
			C163.09,40.36,164.96,38.65,167.75,38.64z"/>
		<path class="st0" d="M262.7,19.63c-2.32,0.03-3.66-1.05-3.66-2.95c0-1.98,1.56-3.22,4.09-3.25c2-0.02,3.29,0.94,3.51,2.93
			C266.87,18.37,265.29,19.59,262.7,19.63z"/>
		<path class="st0" d="M301.22,553.47c-2.2-0.01-3.68-1.25-3.62-3.05c0.06-1.84,1.85-3.2,4.29-3.09c1.87,0.09,3.32,0.81,3.36,3.02
			C305.29,552.48,303.99,553.48,301.22,553.47z"/>
		<path class="st0" d="M524.27,172.07c-1.92,0.03-3.92-2.2-3.89-4.27c0.03-1.91,1-3.05,3.01-3.11c1.89-0.05,3.69,1.91,3.67,4.2
			C527.05,170.78,526.03,171.92,524.27,172.07z"/>
		<path class="st0" d="M88.82,466.19c-0.07,1.42-1.1,2.43-3.08,2.41c-1.78-0.01-4.03-2.28-3.93-4.09c0.1-1.93,1.2-2.97,3.18-2.97
			C86.9,461.56,88.85,463.64,88.82,466.19z"/>
		<path class="st0" d="M431.85,508.43c-1.95-0.04-3.06-1.07-3.17-2.97c-0.1-1.75,2.17-3.74,4.14-3.87c2.07-0.14,3.02,1.14,3.34,2.84
			C436.47,506.09,433.84,508.4,431.85,508.43z"/>
		<path class="st0" d="M541.01,362.31c0.03,2.37-1.48,4.37-3.4,4.38c-2,0.01-2.94-1.17-3.05-3.05c-0.13-2.24,1.5-4.48,3.25-4.58
			C539.5,358.96,540.99,360.47,541.01,362.31z"/>
		<path class="st0" d="M462.85,483.66c-1.7-0.19-2.67-1.35-2.71-3.21c-0.04-1.7,2.38-4.02,4.1-3.95c1.9,0.08,3.02,1.13,3.1,3.06
			C467.41,481.34,464.9,483.7,462.85,483.66z"/>
		<path class="st0" d="M36.3,184.01c-0.02,2.79-1.58,4.76-3.45,4.82c-1.78,0.06-3.21-1.44-3.14-3.28c0.09-2.35,1.7-4.23,3.65-4.18
			C35.34,181.42,36.23,182.58,36.3,184.01z"/>
		<path class="st0" d="M552.8,284.85c0.01,1.56-1.13,2.91-3.19,2.89c-1.93-0.02-3.04-1.5-3-3.98c0.03-2.24,1.23-3.57,3.22-3.48
			C552.16,280.39,552.82,281.91,552.8,284.85z"/>
		<path class="st0" d="M281.65,554.29c-2.5,0.04-3.94-1.06-3.9-3.08c0.04-2.32,1.51-3.06,3.58-3.08c2.53-0.03,3.91,1.02,3.91,3.03
			C285.25,553.09,283.92,554.25,281.65,554.29z"/>
		<path class="st0" d="M408.69,143.93c-10.48-14.39-24.31-24.9-39.72-33.41c-22.73-12.56-47.23-19.28-73.04-21.27
			c-14.8-1.14-29.54-0.42-44.2,1.99c-23.48,3.86-45.45,11.71-65.53,24.58c-13,8.33-24.53,18.27-33.11,31.3
			c-5.3,8.05-8.23,16.76-7.16,26.54c0.57,5.2,1.84,10.07,5.68,13.96c5.51,5.6,12.59,6.88,19.9,6.9c36.75,0.07,73.5-0.04,110.25-0.08
			c0,0.01,0,0.01,0,0.02c35.54-0.04,71.09-0.07,106.63-0.15c3.17-0.01,6.36-0.15,9.52-0.48c12.57-1.33,19.64-9.63,20.12-22.19
			C418.44,161.05,414.68,152.15,408.69,143.93z M196.07,168.47c-1.69,2.55-4.53,2.41-6.42-0.02c-2.29-2.95-2.2-8.68,0.18-11.54
			c1.73-2.08,4.64-2.17,6.1,0.12c1.1,1.73,1.64,3.82,2.46,5.83C197.56,164.94,197.11,166.9,196.07,168.47z M218.01,135.1
			c-1.74,1.88-4.32,2-5.76-0.1c-1.16-1.69-1.75-3.76-2.71-5.92c1-2.2,1.62-4.35,2.85-6.07c1.42-1.98,3.88-1.82,5.55-0.05
			C220.7,125.88,220.74,132.16,218.01,135.1z M241.11,167.5c-0.88,1.18-2.54,2.7-3.67,2.56c-1.46-0.19-3.2-1.61-3.97-2.98
			c-1.52-2.71-1.65-5.87-0.01-8.59c0.81-1.35,2.59-2.94,3.94-2.94c1.36,0,3.08,1.58,3.99,2.91c0.84,1.24,0.82,3.06,1.2,4.74
			C242.11,164.68,241.96,166.35,241.11,167.5z M262.84,134.56c-1.62,2.58-4.56,2.51-6.44,0.13c-2.4-3.05-2.33-8.6,0.15-11.58
			c1.66-2,4.51-2.19,5.96-0.04c1.15,1.69,1.68,3.81,2.53,5.84C264.26,130.98,263.84,132.96,262.84,134.56z M285.04,168.36
			c-1.72,2.58-4.52,2.44-6.38-0.03c-2.38-3.18-2.36-8.07,0.04-11.27c1.78-2.37,4.82-2.46,6.38,0.07c1.03,1.68,1.48,3.72,2.25,5.76
			C286.54,164.83,286.08,166.79,285.04,168.36z M304.07,136.39c-2.63-0.02-5.03-3.24-4.93-7.13c0.04-1.74,0.51-3.6,1.3-5.15
			c1.7-3.34,5.11-3.52,7.1-0.37c0.96,1.53,1.29,3.47,1.9,5.22C309.11,133.09,306.83,136.41,304.07,136.39z M326.51,170.14
			c-2.46,0.08-4.79-2.68-4.97-6.55c-0.09-1.88,0.31-4.01,1.18-5.65c0.64-1.21,2.41-2.52,3.68-2.52c1.28,0.01,2.97,1.31,3.73,2.52
			c0.9,1.44,1.01,3.38,1.46,5.1C331.15,166.99,329.06,170.05,326.51,170.14z M352.1,134.25c-2.06,2.9-5.62,2.74-7.21-0.46
			c-0.74-1.49-1.04-3.21-1.57-4.94c0.53-1.64,0.84-3.35,1.6-4.83c1.7-3.28,5.02-3.44,7.16-0.47
			C354,126.22,354.01,131.56,352.1,134.25z M374.83,166.85c-0.82,1.37-2.45,2.81-3.93,3.1c-1.95,0.38-3.45-1.25-4.11-3.17
			c-0.47-1.36-0.67-2.8-1.05-4.47c0.41-1.38,0.56-3.13,1.43-4.38c0.83-1.19,2.45-2.6,3.66-2.54c1.37,0.07,3.16,1.38,3.9,2.65
			C376.33,160.81,376.51,164.03,374.83,166.85z"/>
		<path class="st0" d="M280.66,261c-0.68-12.88-6.98-22.65-17.97-29.17c-8.95-5.31-18.79-6.82-29.07-5.29
			c-12.02,1.78-22.3,6.88-29.5,16.88c-3.88,5.39-5.35,11.69-3.61,18.35c1.16,4.45,5.27,7.37,9.46,6.62
			c6.66-1.2,10.63-5.67,13.49-11.53c-5.32-1.36-6.07-2.27-5.91-7.53c0.24-7.68,4.91-12.47,11.11-15.83c15-8.12,34.42,0.4,39.6,17.06
			c2.9,9.32,2.65,18.54-0.78,27.55c-2.95,7.73-7.34,14.45-15.99,16.91c-8.22,2.34-15.98,2.2-22.43-4.5
			c-1.42-1.47-1.7-2.85-0.94-4.83c3.92-10.22,9-19.85,14.97-28.98c3.87-5.92,7.53-12.14,14.39-15.83c-0.84-0.78-1.54-1.49-2.3-2.12
			c-3.01-2.5-3.74-2.58-6.8,0.01c-2.02,1.72-3.94,3.6-5.66,5.62c-9.71,11.34-17.82,23.71-23.84,37.4c-0.59,1.33-1.21,1.75-2.73,1.45
			c-2.07-0.41-4.27-0.75-6.35-0.5c-8.73,1.03-15.83,7.95-17.36,16.6c-1.24,7.02,2.25,11.98,9.19,12.37
			c7.39,0.42,13.91-1.86,18.77-7.77c1.43-1.74,2.62-3.69,4.05-5.72c0.57,0.85,0.91,1.54,1.41,2.08c2.48,2.69,4.64,5.87,7.59,7.9
			c8.21,5.67,16.93,4.61,24.66-0.67C274.35,296.44,281.7,280.59,280.66,261z M212.27,293.92c-2.14,3.35-5.07,5.57-9.24,5.44
			c-2.6-0.08-3.09-1.07-2-3.45c1.62-3.54,5.19-5.77,9.32-6.04c1.01,0.36,2.01,0.71,3.02,1.07
			C213.01,291.94,212.82,293.05,212.27,293.92z"/>
		<path class="st0" d="M258.98,459.47c-3.42-0.78-6.94-1.07-10.42-1.55c-1.53-0.21-3.06-0.39-4.6-0.47
			c-0.37-0.02-0.77,0.44-1.16,0.68c0.23,0.32,0.4,0.72,0.7,0.93c0.4,0.28,0.9,0.41,1.49,0.67c-1.17,9.69-2.28,19.3-3.49,28.9
			c-1.42,11.24-2.97,22.47-4.39,33.71c-0.25,2.01-0.06,4.11-3.53,3.83c0.51,0.79,0.66,1.27,0.87,1.3c3.8,0.6,7.61,1.17,11.42,1.66
			c0.36,0.05,0.79-0.47,1.19-0.72c-0.28-0.38-0.57-0.74-0.83-1.13c-0.45-0.65-1.33-1.37-1.25-1.97c1.23-10.31,2.56-20.62,3.97-30.91
			c0.07-0.53,0.99-1.33,1.55-1.36c4.4-0.24,6.04,1.88,5.43,6.46c-1.04,7.74-2.13,15.49-2.88,23.26c-0.55,5.66,2.7,8.69,8.38,8.34
			c0.38-0.02,0.9-0.21,1.06-0.48c0.16-0.26,0.06-1-0.14-1.1c-2.19-1.07-1.68-3.03-1.48-4.74c0.7-5.97,1.32-11.96,2.38-17.86
			c0.99-5.5,0.51-10.25-4.44-13.69c-0.04-0.03-0.01-0.16-0.02-0.24c0.02-0.08,0.02-0.19,0.08-0.23c0.28-0.2,0.54-0.45,0.86-0.56
			c4.47-1.63,6.13-5.19,6.61-9.58c0.4-3.67,0.84-7.33,1.23-11C268.18,465.58,264.95,460.82,258.98,459.47z M260.1,466.5
			c-0.82,6.71-1.63,13.42-2.54,20.12c-0.59,4.36-2.98,5.49-8.09,3.85c0.72-5.89,1.43-11.81,2.17-17.73
			c0.42-3.4,0.98-6.79,1.27-10.19c0.15-1.77,0.96-2.17,2.51-1.96C259.16,461.08,260.55,462.79,260.1,466.5z"/>
		<path class="st0" d="M380.63,507.83c-0.94-0.84-2.29-1.51-2.73-2.56c-2.19-5.21-4.11-10.53-6.17-15.8
			c-2.13-5.45-3.68-11.48-12.26-11.45c5.39-5.17,4.21-10.09,1.93-15.16c-1.26-2.81-2.28-5.73-3.37-8.62
			c-1.28-3.41-3.74-5.49-7.24-6.26c-7.74-1.71-13.7,3.49-20.51,5.41c-0.21,0.06-0.43,0.77-0.33,1.07c0.1,0.27,0.73,0.64,0.94,0.55
			c1.76-0.78,2.06,0.54,2.49,1.65c2.8,7.18,5.59,14.37,8.37,21.56c4.64,11.98,9.29,23.95,13.89,35.94c0.51,1.32,1.74,2.86-0.58,3.86
			c-0.17,0.07-0.2,1.03-0.1,1.07c0.44,0.17,1.01,0.32,1.42,0.17c3.3-1.2,6.58-2.45,9.83-3.77c0.38-0.16,0.53-0.89,0.79-1.36
			c-0.43-0.14-0.85-0.36-1.29-0.4c-0.39-0.04-0.79,0.12-1.37,0.22c-4.14-10.69-8.25-21.27-12.33-31.8c4.99-2.97,7.03-2.37,8.97,2.5
			c2.75,6.93,5.41,13.89,8.14,20.82c2.38,6.04,5.67,7.3,11.47,4.42c0.46-0.23,0.75-0.77,1.13-1.16
			C381.37,508.45,380.99,508.15,380.63,507.83z M351.19,479.91c-0.91-2.33-1.84-4.71-2.77-7.08c-2.37-6.06-4.78-12.11-7.06-18.2
			c-0.39-1.04-0.72-2.77-0.18-3.37c1.45-1.59,4.84-1.61,6.15-0.25c0.86,0.89,1.49,2.09,1.95,3.25c2.27,5.73,4.25,11.59,6.73,17.23
			C358.35,476.83,356.04,478.93,351.19,479.91z"/>
		<path class="st0" d="M202.01,443.67c-4.81-3.56-10.38-6.09-15.62-9.07c-0.26,0.28-0.53,0.57-0.79,0.85
			c0.45,0.81,0.91,1.63,1.53,2.74c-9.52,18.66-19.09,37.38-28.61,56.11c-0.87,1.71-1.48,3.58-4.3,2.62c0.41,0.88,0.79,1.59,1.39,1.9
			c3.94,2.09,7.86,4.26,11.93,6.07c5.84,2.61,12.69,0.39,15.19-5.46c2.02-4.72,4.61-9.2,7-13.76c1.87-3.57,1.94-7.05-0.25-10.5
			c-0.26-0.41-0.45-0.86-0.64-1.23c0.19-0.21,0.23-0.3,0.29-0.32c0.24-0.08,0.49-0.2,0.73-0.21c4.77-0.14,7.72-2.68,9.61-6.92
			c1.47-3.28,3.28-6.41,4.9-9.63C206.84,451.97,206.41,446.93,202.01,443.67z M184.85,477.05c-4.04,8.02-8.08,16.05-12.29,23.98
			c-1.37,2.59-5.76,2.72-7.54,0.41c-0.31-0.4-0.28-1.35-0.03-1.85c4.91-9.7,9.88-19.37,14.98-29.31c1.29,0.66,2.34,1.06,3.24,1.68
			C185.01,473.21,185.92,474.93,184.85,477.05z M199.01,449.49c-2.91,5.74-5.84,11.47-8.76,17.21c-2.35,4.62-4.65,5.07-9.19,1.53
			c1.07-2.13,2.18-4.33,3.29-6.53c3.13-6.2,6.29-12.39,9.38-18.61c0.72-1.46,1.44-1.81,2.97-0.95
			C200.21,444.1,200.85,445.86,199.01,449.49z"/>
	</g>
</g>
</svg>
